<?xml version="1.0" encoding="utf-8"?>
<!-- Generator: Adobe Illustrator 27.1.1, SVG Export Plug-In . SVG Version: 6.00 Build 0)  -->
<svg version="1.1" id="Capa_1" xmlns="http://www.w3.org/2000/svg" xmlns:xlink="http://www.w3.org/1999/xlink" x="0px" y="0px"
	 viewBox="0 0 80.2 80.2" style="enable-background:new 0 0 80.2 80.2;" xml:space="preserve">
<style type="text/css">
	.st0{fill:#0B3D91;}
	.st1{fill:#FFFFFF;}
	.st2{fill:#FC3D21;}
</style>
<circle class="st0" cx="40.1" cy="40.1" r="40.1"/>
<circle class="st1" cx="36.1" cy="10.6" r="0.5"/>
<circle class="st1" cx="40.7" cy="11.2" r="0.5"/>
<circle class="st1" cx="46.8" cy="19.3" r="0.5"/>
<circle class="st1" cx="13.6" cy="61.3" r="0.5"/>
<circle class="st1" cx="14.7" cy="64.9" r="0.4"/>
<circle class="st1" cx="9.2" cy="61.9" r="0.3"/>
<circle class="st1" cx="27.5" cy="68.9" r="0.3"/>
<circle class="st1" cx="56.2" cy="63" r="0.3"/>
<circle class="st1" cx="64.5" cy="53.9" r="0.3"/>
<circle class="st1" cx="23.6" cy="22" r="0.3"/>
<circle class="st1" cx="32.8" cy="15.2" r="0.3"/>
<circle class="st1" cx="31.8" cy="14.6" r="0.3"/>
<circle class="st1" cx="30.9" cy="13.9" r="0.3"/>
<circle class="st1" cx="25.1" cy="23.7" r="0.3"/>
<circle class="st1" cx="38.6" cy="6.2" r="0.3"/>
<circle class="st1" cx="40.8" cy="15.9" r="0.3"/>
<circle class="st1" cx="37.3" cy="14" r="0.3"/>
<circle class="st1" cx="31.3" cy="16.6" r="0.3"/>
<circle class="st1" cx="57.8" cy="71.9" r="0.3"/>
<circle class="st1" cx="13" cy="63.6" r="0.3"/>
<circle class="st1" cx="36.5" cy="68" r="0.3"/>
<circle class="st1" cx="20" cy="63.3" r="0.3"/>
<circle class="st1" cx="22.9" cy="68.1" r="0.3"/>
<circle class="st1" cx="44.4" cy="65.1" r="0.3"/>
<circle class="st1" cx="56.2" cy="58.4" r="0.3"/>
<circle class="st1" cx="65.2" cy="62.5" r="0.3"/>
<circle class="st1" cx="68.3" cy="64.5" r="0.3"/>
<circle class="st1" cx="68.8" cy="59.1" r="0.3"/>
<circle class="st1" cx="24.1" cy="51.6" r="0.3"/>
<circle class="st1" cx="24.2" cy="59.3" r="0.5"/>
<circle class="st1" cx="26.9" cy="65" r="0.4"/>
<circle class="st1" cx="59.3" cy="59.1" r="0.4"/>
<circle class="st1" cx="70.9" cy="58.4" r="0.4"/>
<circle class="st1" cx="65.2" cy="56" r="0.4"/>
<circle class="st1" cx="59.3" cy="56.2" r="0.4"/>
<path class="st1" d="M47.2,10.3l1.1-0.1l-1.1-0.1c0-0.2-0.2-0.4-0.4-0.4l-0.1-1.1l-0.1,1.1c-0.2,0-0.4,0.2-0.4,0.4l-1.1,0.1l1.2,0.1
	c0,0.2,0.2,0.3,0.4,0.4l0.1,1.1l0.1-1.1C47,10.7,47.1,10.5,47.2,10.3z"/>
<path class="st1" d="M28.3,22.7l1.1-0.1l-1.1-0.1c0-0.2-0.2-0.4-0.4-0.4L27.8,21l-0.1,1.1c-0.2,0-0.4,0.2-0.4,0.4l-1.1,0.1l1.2,0.1
	c0,0.2,0.2,0.3,0.4,0.4l0.1,1.1l0.1-1.1C28.1,23.1,28.2,23,28.3,22.7z"/>
<path class="st1" d="M70.1,55.7l1.1-0.1l-1.1-0.1c0-0.2-0.2-0.4-0.4-0.4L69.6,54l-0.1,1.1c-0.2,0-0.4,0.2-0.4,0.4L68,55.6l1.2,0.1
	c0,0.2,0.2,0.3,0.4,0.4l0.1,1.1l0.1-1.1C69.9,56.1,70.1,55.9,70.1,55.7z"/>
<path class="st1" d="M24.5,72.9l1.1-0.1l-1.1-0.1c0-0.2-0.2-0.4-0.4-0.4L24,71.2l-0.1,1.1c-0.2,0-0.4,0.2-0.4,0.4l-1.1,0.1l1.2,0.1
	c0,0.2,0.2,0.3,0.4,0.4l0.1,1.1l0.1-1.1C24.3,73.3,24.5,73.1,24.5,72.9z"/>
<path class="st1" d="M66.5,64.5l1.1-0.1l-1.1-0.1c0-0.2-0.2-0.4-0.4-0.4L66,62.8l-0.1,1.1c-0.2,0-0.4,0.2-0.4,0.4l-1.1,0.1l1.2,0.1
	c0,0.2,0.2,0.3,0.4,0.4l0.1,1.1l0.1-1.1C66.3,64.9,66.5,64.7,66.5,64.5z"/>
<path class="st1" d="M49.4,33.8c-0.2-0.2-0.3-0.4-0.5-0.6c-2.8-3.5-7.1-7.7-7.1-7.7c-8.5-7.7-17-11.2-21.2-7.9
	C16.3,21,18.1,31,24,41.4l1.9,3.2c1.3,2,2.7,3.9,4.2,5.8c1.1,1.4,2.1,2.5,2.6,3.2c0.1,0.1,0.3,0.5,0.6,0.9l1,1.4
	c1.2,1.7,2.8,3.7,4.1,4.3c1.9,0.9,2.4-0.7,1.5-1.6c-0.8-0.5-2.6-1.6-4.4-3.4L34.3,54c-0.3-0.3-0.6-0.7-0.9-1.1
	c-0.9-1.1-2.1-2.6-3-3.8C29.2,47.6,28,46,27,44.4l-2-3.2c-6-10.2-7.6-19.7-3.6-22.9c3.8-3.1,11.8,0.4,19.8,7.7c0,0,3.8,3.4,7.1,7.7
	c0.5,0.6,0.8,1,1.1,1.3c1.9,2.5,3.6,4.9,5,7.3c6,10,7.9,18.9,3.7,22.6c-1.3,1.1-5.2,1.6-10.2-0.7c-0.1,0.1,0,0.3,0.1,0.4
	c4.4,1.8,8.6,2.4,10.7,0.8C63.8,61.3,59.9,47,49.4,33.8z"/>
<path class="st1" d="M35.5,55.2L34.3,54c-0.3-0.3-0.6-0.7-0.9-1.1c-0.9-1.1-2.1-2.6-3-3.8C29.2,47.6,28,46,27,44.4l-2-3.2
	c-6-10.2-7.6-19.7-3.6-22.9c1.7-1.4,4.3-1.4,7.4-0.4l0.3-0.7c-3.4-1.2-6.4-1.1-8.4,0.5c-4.3,3.4-2.5,13.4,3.4,23.8l1.9,3.2
	c1.3,2,2.7,3.9,4.2,5.8c1.1,1.4,2.1,2.5,2.6,3.2c0.1,0.1,0.3,0.5,0.6,0.9l1,1.4c1.2,1.7,2.8,3.7,4.1,4.3c1.9,0.9,2.4-0.7,1.5-1.6
	C39.1,58.1,37.3,57,35.5,55.2z"/>
<g>
	<g>
		<path class="st2" d="M28.9,59.6c-2.2,0-4.3-0.9-5.8-2.4L22.8,57c-3.2-3.2-3.2-8.4-0.1-11.6l1.9-2l0.9,1.5c1.2,1.8,2.5,3.7,4.2,5.8
			c0.5,0.7,1,1.3,1.5,1.8c0.5,0.6,0.9,1,1.2,1.4c0,0,0.1,0.1,0.1,0.2c0.1,0.2,0.3,0.4,0.4,0.7l1,1.4c0.1,0.2,0.2,0.3,0.3,0.5
			l0.4,0.5l-0.3,0.3C32.8,58.9,30.9,59.6,28.9,59.6L28.9,59.6z"/>
		<path class="st0" d="M24.6,44.3l0.6,1c1.2,1.9,2.6,3.7,4.3,5.9c0.5,0.7,1,1.3,1.5,1.8c0.5,0.5,0.8,1,1.1,1.4c0,0,0.1,0.1,0.1,0.2
			c0.1,0.2,0.3,0.4,0.4,0.7l1,1.4c0.1,0.2,0.3,0.4,0.4,0.6c-1.5,1.3-3.3,2-5.2,2c-2,0-3.9-0.8-5.4-2.3l-0.2-0.2c-3-3-3-7.8-0.1-10.9
			L24.6,44.3 M24.8,42.6l-0.9,0.9l-1.5,1.5c-3.3,3.4-3.3,8.9,0.1,12.3l0.2,0.2c1.6,1.6,3.8,2.5,6.2,2.5c2.2,0,4.2-0.8,5.8-2.2
			l0.7-0.6l-0.5-0.7l-0.1-0.1c-0.1-0.2-0.2-0.3-0.3-0.5l-1-1.4c-0.1-0.2-0.3-0.4-0.4-0.6c-0.1-0.1-0.1-0.2-0.1-0.2
			c-0.3-0.4-0.7-0.9-1.2-1.5c-0.4-0.5-0.9-1.1-1.5-1.8c-1.7-2.1-3-4-4.2-5.8l-0.6-0.9L24.8,42.6L24.8,42.6z"/>
	</g>
	<g>
		<path class="st2" d="M51.4,59.6c-2.2,0-4.3-0.9-5.9-2.5l-5.3-5.4l-3.7,3.7l-0.6-0.6l-1.2-1.2c-0.3-0.3-0.6-0.7-0.9-1.1
			c-1.1-1.4-2.2-2.8-3-3.8c-1.4-1.7-2.5-3.3-3.4-4.6L26.1,42l2.1-2.1l-5-5.1c-1.6-1.6-2.4-3.6-2.4-5.8c0-2.2,0.9-4.3,2.4-5.8
			l0.2-0.2c1.6-1.6,3.6-2.4,5.8-2.4c2.2,0,4.2,0.8,5.7,2.3l5.3,5.2l5-5c1.6-1.6,3.6-2.4,5.8-2.4c2.2,0,4.3,0.9,5.8,2.4l0.2,0.2
			c1.6,1.6,2.4,3.6,2.4,5.8c0,2.2-0.9,4.3-2.4,5.8l-5,5.1l5.4,5.5c3.1,3.2,3.1,8.4-0.1,11.6l-0.2,0.2C55.6,58.7,53.6,59.6,51.4,59.6
			L51.4,59.6z"/>
		<path class="st0" d="M29.2,21.1c1.9,0,3.9,0.7,5.4,2.2l5.6,5.5l5.4-5.4c1.5-1.5,3.5-2.3,5.5-2.3c2,0,4,0.8,5.5,2.3l0.2,0.2
			c3,3,3,7.9,0,10.9l-5.4,5.4l5.8,5.9c3,3,2.9,7.9-0.1,10.9l-0.2,0.2c-1.5,1.5-3.5,2.3-5.5,2.3c-2,0-4-0.8-5.5-2.3L40.2,51l-3.8,3.8
			c-0.1-0.1-0.2-0.2-0.3-0.3L35,53.3c-0.2-0.2-0.5-0.6-0.8-1c-1.1-1.4-2.2-2.8-3-3.8c-1.4-1.7-2.5-3.3-3.3-4.6l-1.1-1.8l2.1-2.2
			l-5.4-5.4c-3-3-3-7.9,0-10.9l0.2-0.2C25.2,21.8,27.2,21.1,29.2,21.1 M29.2,20.1c-2.3,0-4.5,0.9-6.2,2.6l-0.2,0.2
			c-3.4,3.4-3.4,8.9,0,12.3l4.7,4.7L26,41.4l-0.6,0.6l0.4,0.7l1.1,1.8c0.9,1.4,2,2.9,3.4,4.7c0.7,1,1.9,2.4,3,3.8
			c0.3,0.4,0.6,0.8,0.9,1.1l1.2,1.2c0.1,0.1,0.1,0.1,0.2,0.2l0.1,0.1l0.7,0.7l0.7-0.7l3-3l4.9,5c1.7,1.7,3.9,2.6,6.2,2.6
			c2.3,0,4.5-0.9,6.2-2.6l0.2-0.2c3.4-3.4,3.4-8.9,0.1-12.3l-5.1-5.2l4.7-4.7c3.4-3.4,3.4-8.9,0-12.3l-0.2-0.2
			c-1.6-1.6-3.8-2.6-6.2-2.6c-2.3,0-4.5,0.9-6.2,2.6l-4.7,4.7l-4.9-4.8C33.6,20.9,31.5,20.1,29.2,20.1L29.2,20.1z"/>
	</g>
</g>
<path class="st1" d="M35.5,55.2L34.3,54c-0.3-0.3-0.6-0.7-0.9-1.1c-0.9-1.1-2.1-2.6-3-3.8C29.2,47.6,28,46,27,44.4l-2-3.2
	c-6-10.2-7.6-19.7-3.6-22.9c1.7-1.4,4.3-1.4,7.4-0.4l0.3-0.7c-3.4-1.2-6.4-1.1-8.4,0.5c-4.3,3.4-2.5,13.4,3.4,23.8l1.9,3.2
	c1.3,2,2.7,3.9,4.2,5.8c1.1,1.4,2.1,2.5,2.6,3.2c0.1,0.1,0.3,0.5,0.6,0.9l1,1.4c1.2,1.7,2.8,3.7,4.1,4.3c1.9,0.9,2.4-0.7,1.5-1.6
	C39.1,58.1,37.3,57,35.5,55.2z"/>
</svg>
