<?xml version="1.0" encoding="utf-8"?>
<!-- Generator: Adobe Illustrator 27.1.1, SVG Export Plug-In . SVG Version: 6.00 Build 0)  -->
<svg version="1.1" id="Capa_1" xmlns="http://www.w3.org/2000/svg" xmlns:xlink="http://www.w3.org/1999/xlink" x="0px" y="0px"
	 viewBox="0 0 80.3 80.3" style="enable-background:new 0 0 80.3 80.3;" xml:space="preserve">
<style type="text/css">
	.st0{fill:#0B3D91;}
	.st1{fill:#FFFFFF;}
	.st2{fill:#FC3D21;}
</style>
<circle class="st0" cx="40.1" cy="40.1" r="40.1"/>
<circle class="st1" cx="36.2" cy="10.6" r="0.5"/>
<circle class="st1" cx="40.8" cy="11.2" r="0.5"/>
<circle class="st1" cx="46.8" cy="19.3" r="0.5"/>
<circle class="st1" cx="13.6" cy="61.3" r="0.5"/>
<circle class="st1" cx="14.8" cy="64.9" r="0.4"/>
<circle class="st1" cx="9.2" cy="61.9" r="0.3"/>
<circle class="st1" cx="27.5" cy="68.9" r="0.3"/>
<circle class="st1" cx="56.2" cy="63" r="0.3"/>
<circle class="st1" cx="64.5" cy="53.9" r="0.3"/>
<circle class="st1" cx="23.7" cy="22" r="0.3"/>
<circle class="st1" cx="32.8" cy="15.2" r="0.3"/>
<circle class="st1" cx="31.8" cy="14.6" r="0.3"/>
<circle class="st1" cx="30.9" cy="13.9" r="0.3"/>
<circle class="st1" cx="25.1" cy="23.7" r="0.3"/>
<circle class="st1" cx="38.6" cy="6.2" r="0.3"/>
<circle class="st1" cx="40.8" cy="15.9" r="0.3"/>
<circle class="st1" cx="37.3" cy="14" r="0.3"/>
<circle class="st1" cx="31.3" cy="16.6" r="0.3"/>
<circle class="st1" cx="57.8" cy="71.9" r="0.3"/>
<circle class="st1" cx="13" cy="63.6" r="0.3"/>
<circle class="st1" cx="36.5" cy="68" r="0.3"/>
<circle class="st1" cx="20" cy="63.3" r="0.3"/>
<circle class="st1" cx="22.9" cy="68.1" r="0.3"/>
<circle class="st1" cx="44.4" cy="65.1" r="0.3"/>
<circle class="st1" cx="56.3" cy="58.4" r="0.3"/>
<circle class="st1" cx="65.2" cy="62.5" r="0.3"/>
<circle class="st1" cx="68.3" cy="64.5" r="0.3"/>
<circle class="st1" cx="68.8" cy="59.1" r="0.3"/>
<circle class="st1" cx="24.2" cy="51.6" r="0.3"/>
<circle class="st1" cx="24.3" cy="59.3" r="0.5"/>
<circle class="st1" cx="27" cy="65" r="0.4"/>
<circle class="st1" cx="59.3" cy="59.1" r="0.4"/>
<circle class="st1" cx="71" cy="58.4" r="0.4"/>
<circle class="st1" cx="65.2" cy="56" r="0.4"/>
<circle class="st1" cx="59.3" cy="56.2" r="0.4"/>
<path class="st1" d="M47.2,10.3l1.1-0.1l-1.1-0.1c0-0.2-0.2-0.4-0.4-0.4l-0.1-1.1l-0.1,1.1c-0.2,0-0.4,0.2-0.4,0.4l-1.1,0.1l1.2,0.1
	c0,0.2,0.2,0.3,0.4,0.4l0.1,1.1l0.1-1.1C47,10.7,47.2,10.5,47.2,10.3z"/>
<path class="st1" d="M28.3,22.7l1.1-0.1l-1.1-0.1c0-0.2-0.2-0.4-0.4-0.4l-0.1-1.1l-0.1,1.1c-0.2,0-0.4,0.2-0.4,0.4l-1.1,0.1l1.2,0.1
	c0,0.2,0.2,0.3,0.4,0.4l0.1,1.1l0.1-1.1C28.1,23.1,28.3,23,28.3,22.7z"/>
<path class="st1" d="M70.1,55.7l1.1-0.1l-1.1-0.1c0-0.2-0.2-0.4-0.4-0.4L69.6,54l-0.1,1.1c-0.2,0-0.4,0.2-0.4,0.4L68,55.6l1.2,0.1
	c0,0.2,0.2,0.3,0.4,0.4l0.1,1.1l0.1-1.1C69.9,56.1,70.1,55.9,70.1,55.7z"/>
<path class="st1" d="M24.5,72.9l1.1-0.1l-1.1-0.1c0-0.2-0.2-0.4-0.4-0.4L24,71.2l-0.1,1.1c-0.2,0-0.4,0.2-0.4,0.4l-1.1,0.1l1.2,0.1
	c0,0.2,0.2,0.3,0.4,0.4l0.1,1.1l0.1-1.1C24.3,73.3,24.5,73.1,24.5,72.9z"/>
<path class="st1" d="M66.6,64.5l1.1-0.1l-1.1-0.1c0-0.2-0.2-0.4-0.4-0.4l-0.1-1.1L66,63.9c-0.2,0-0.4,0.2-0.4,0.4l-1.1,0.1l1.2,0.1
	c0,0.2,0.2,0.3,0.4,0.4l0.1,1.1l0.1-1.1C66.4,64.9,66.6,64.7,66.6,64.5z"/>
<g>
	<path class="st2" d="M43.8,62.7c-1.2,0-2.5-0.5-3.3-1.6c-1.5-1.8-1.2-4.5,0.7-5.9l12.1-9.6l-12.1-9.7c-1.8-1.5-2.1-4.1-0.6-5.9
		s4.1-2.1,5.9-0.6l16.2,13c1,0.8,1.6,2,1.6,3.3c0,1.3-0.6,2.5-1.6,3.3L46.4,61.8C45.6,62.4,44.7,62.7,43.8,62.7z"/>
</g>
<path class="st1" d="M35.5,55.2L34.3,54c-0.3-0.3-0.6-0.7-0.9-1.1c-0.9-1.1-2.1-2.6-3-3.8c-1.2-1.5-2.4-3.1-3.4-4.7l-2-3.2
	c-6-10.2-7.6-19.7-3.6-22.9c1.7-1.4,4.3-1.4,7.4-0.4l0.3-0.7c-3.4-1.2-6.4-1.1-8.4,0.5c-4.3,3.4-2.5,13.4,3.4,23.8l1.9,3.2
	c1.3,2,2.7,3.9,4.2,5.8c1.1,1.4,2.1,2.5,2.6,3.2c0.1,0.1,0.3,0.5,0.6,0.9l1,1.4c1.2,1.7,2.8,3.7,4.1,4.3c1.9,0.9,2.4-0.7,1.5-1.6
	C39.1,58.1,37.3,57,35.5,55.2z"/>
<path class="st1" d="M59.3,52.8c1.7,5.4,1.4,9.9-1.2,12.2c-1.3,1.1-5.2,1.6-10.2-0.7c-0.1,0.1,0,0.3,0.1,0.4
	c4.4,1.8,8.6,2.4,10.7,0.8c2.6-2.1,2.9-6.9,1-13L59.3,52.8z"/>
<g>
	<path class="st1" d="M38.6,57.9c0,0,0-0.1,0-0.1c-0.9-0.7-2-1.5-3.1-2.6L34.3,54c-0.3-0.3-0.6-0.7-0.9-1.1c-0.9-1.1-2.1-2.6-3-3.8
		c-0.1-0.2-0.3-0.4-0.4-0.6l-0.5,1.1c0.2,0.3,0.4,0.6,0.6,0.8c1.1,1.4,2.1,2.5,2.6,3.2c0.1,0.1,0.3,0.5,0.6,0.9l1,1.4
		c1.2,1.7,2.8,3.7,4.1,4.3c0.2,0.1,0.5,0.2,0.7,0.2C38.6,59.8,38.5,58.9,38.6,57.9z"/>
	<path class="st1" d="M23,37.7c-4.4-8.8-5.2-16.5-1.6-19.4c2.1-1.7,5.5-1.4,9.4,0.4c0.1-0.2,0.3-0.4,0.5-0.6
		c-4.4-2-8.2-2.4-10.6-0.4c-3.9,3.1-2.8,11.7,1.9,21.1L23,37.7z"/>
	<path class="st1" d="M39.8,23.8l-0.3,0.8c1.1,0.9,2.1,1.9,3.2,2.9c0.3-0.1,0.7-0.1,1-0.1C42.4,26.1,41.1,24.9,39.8,23.8z"/>
</g>
<g>
	<path class="st2" d="M25.8,40.8l2,3.2c0.6,0.9,1.2,1.8,1.9,2.6l9.3-23.3c0.9-2.2-0.2-4.6-2.4-5.5C34.4,17,32,18,31.1,20.2l-7,17.5
		C24.6,38.7,25.2,39.7,25.8,40.8z"/>
	<path class="st2" d="M25.1,45.3l-1.9-3.2c-0.2-0.3-0.3-0.6-0.5-0.9l-6.3,15.7c-0.9,2.2,0.2,4.6,2.4,5.5c0.5,0.2,1,0.3,1.6,0.3
		c1.7,0,3.3-1,3.9-2.7l4.1-10.2C27.2,48.4,26.1,46.9,25.1,45.3z"/>
</g>
</svg>
