<?xml version="1.0" encoding="utf-8"?>
<!-- Generator: Adobe Illustrator 27.1.1, SVG Export Plug-In . SVG Version: 6.00 Build 0)  -->
<svg version="1.1" id="Capa_1" xmlns="http://www.w3.org/2000/svg" xmlns:xlink="http://www.w3.org/1999/xlink" x="0px" y="0px"
	 viewBox="0 0 80.3 80.3" style="enable-background:new 0 0 80.3 80.3;" xml:space="preserve">
<style type="text/css">
	.st0{fill:#0B3D91;}
	.st1{fill:#FFFFFF;}
	.st2{fill:#FC3D21;}
</style>
<circle class="st0" cx="40.1" cy="40.1" r="40.1"/>
<circle class="st1" cx="36.2" cy="10.6" r="0.5"/>
<circle class="st1" cx="40.8" cy="11.2" r="0.5"/>
<circle class="st1" cx="46.8" cy="19.3" r="0.5"/>
<circle class="st1" cx="13.6" cy="61.3" r="0.5"/>
<circle class="st1" cx="14.8" cy="64.9" r="0.4"/>
<circle class="st1" cx="9.2" cy="61.9" r="0.3"/>
<circle class="st1" cx="27.5" cy="68.9" r="0.3"/>
<circle class="st1" cx="56.2" cy="63" r="0.3"/>
<circle class="st1" cx="64.5" cy="53.9" r="0.3"/>
<circle class="st1" cx="23.7" cy="22" r="0.3"/>
<circle class="st1" cx="32.8" cy="15.2" r="0.3"/>
<circle class="st1" cx="31.8" cy="14.6" r="0.3"/>
<circle class="st1" cx="30.9" cy="13.9" r="0.3"/>
<circle class="st1" cx="25.1" cy="23.7" r="0.3"/>
<circle class="st1" cx="38.6" cy="6.2" r="0.3"/>
<circle class="st1" cx="40.8" cy="15.9" r="0.3"/>
<circle class="st1" cx="37.3" cy="14" r="0.3"/>
<circle class="st1" cx="31.3" cy="16.6" r="0.3"/>
<circle class="st1" cx="57.8" cy="71.9" r="0.3"/>
<circle class="st1" cx="13" cy="63.6" r="0.3"/>
<circle class="st1" cx="36.5" cy="68" r="0.3"/>
<circle class="st1" cx="20" cy="63.3" r="0.3"/>
<circle class="st1" cx="22.9" cy="68.1" r="0.3"/>
<circle class="st1" cx="44.4" cy="65.1" r="0.3"/>
<circle class="st1" cx="56.3" cy="58.4" r="0.3"/>
<circle class="st1" cx="65.2" cy="62.5" r="0.3"/>
<circle class="st1" cx="68.3" cy="64.5" r="0.3"/>
<circle class="st1" cx="68.8" cy="59.1" r="0.3"/>
<circle class="st1" cx="24.2" cy="51.6" r="0.3"/>
<circle class="st1" cx="24.3" cy="59.3" r="0.5"/>
<circle class="st1" cx="27" cy="65" r="0.4"/>
<circle class="st1" cx="59.3" cy="59.1" r="0.4"/>
<circle class="st1" cx="71" cy="58.4" r="0.4"/>
<circle class="st1" cx="65.2" cy="56" r="0.4"/>
<circle class="st1" cx="59.3" cy="56.2" r="0.4"/>
<path class="st1" d="M47.2,10.3l1.1-0.1l-1.1-0.1c0-0.2-0.2-0.4-0.4-0.4l-0.1-1.1l-0.1,1.1c-0.2,0-0.4,0.2-0.4,0.4l-1.1,0.1l1.2,0.1
	c0,0.2,0.2,0.3,0.4,0.4l0.1,1.1l0.1-1.1C47,10.7,47.2,10.5,47.2,10.3z"/>
<path class="st1" d="M28.3,22.7l1.1-0.1l-1.1-0.1c0-0.2-0.2-0.4-0.4-0.4l-0.1-1.1l-0.1,1.1c-0.2,0-0.4,0.2-0.4,0.4l-1.1,0.1l1.2,0.1
	c0,0.2,0.2,0.3,0.4,0.4l0.1,1.1l0.1-1.1C28.1,23.1,28.3,23,28.3,22.7z"/>
<path class="st1" d="M70.1,55.7l1.1-0.1l-1.1-0.1c0-0.2-0.2-0.4-0.4-0.4L69.6,54l-0.1,1.1c-0.2,0-0.4,0.2-0.4,0.4L68,55.6l1.2,0.1
	c0,0.2,0.2,0.3,0.4,0.4l0.1,1.1l0.1-1.1C69.9,56.1,70.1,55.9,70.1,55.7z"/>
<path class="st1" d="M24.5,72.9l1.1-0.1l-1.1-0.1c0-0.2-0.2-0.4-0.4-0.4L24,71.2l-0.1,1.1c-0.2,0-0.4,0.2-0.4,0.4l-1.1,0.1l1.2,0.1
	c0,0.2,0.2,0.3,0.4,0.4l0.1,1.1l0.1-1.1C24.3,73.3,24.5,73.1,24.5,72.9z"/>
<path class="st1" d="M66.6,64.5l1.1-0.1l-1.1-0.1c0-0.2-0.2-0.4-0.4-0.4l-0.1-1.1L66,63.9c-0.2,0-0.4,0.2-0.4,0.4l-1.1,0.1l1.2,0.1
	c0,0.2,0.2,0.3,0.4,0.4l0.1,1.1l0.1-1.1C66.4,64.9,66.6,64.7,66.6,64.5z"/>
<g>
	<g>
		<path class="st2" d="M48.2,23c1.2,0,2.5,0.5,3.3,1.6c1.5,1.8,1.2,4.5-0.7,5.9l-12.1,9.6l12.1,9.7c1.8,1.5,2.1,4.1,0.6,5.9
			s-4.1,2.1-5.9,0.6l-16.2-13c-1-0.8-1.6-2-1.6-3.3c0-1.3,0.6-2.5,1.6-3.3l16.2-12.9C46.4,23.3,47.3,23,48.2,23z"/>
	</g>
</g>
<path class="st1" d="M35.5,55.2L34.3,54c-0.3-0.3-0.6-0.7-0.9-1.1c-0.9-1.1-2.1-2.6-3-3.8c-1.2-1.5-2.4-3.1-3.4-4.7l-2-3.2
	c-6-10.2-7.6-19.7-3.6-22.9c1.7-1.4,4.3-1.4,7.4-0.4l0.3-0.7c-3.4-1.2-6.4-1.1-8.4,0.5c-4.3,3.4-2.5,13.4,3.4,23.8l1.9,3.2
	c1.3,2,2.7,3.9,4.2,5.8c1.1,1.4,2.1,2.5,2.6,3.2c0.1,0.1,0.3,0.5,0.6,0.9l1,1.4c1.2,1.7,2.8,3.7,4.1,4.3c1.9,0.9,2.4-0.7,1.5-1.6
	C39.1,58.1,37.3,57,35.5,55.2z"/>
<g>
	<path class="st1" d="M49.5,33.8c-0.2-0.2-0.3-0.4-0.5-0.6l-0.6,0.5c0.2,0.2,0.4,0.5,0.6,0.7c2.1,2.7,4,5.3,5.5,7.9
		c6,10,7.9,18.9,3.7,22.6c-1.3,1.1-5.2,1.6-10.2-0.7c-0.1,0.1,0,0.3,0.1,0.4c4.4,1.8,8.6,2.4,10.7,0.8C63.9,61.3,59.9,47,49.5,33.8z
		"/>
	<path class="st1" d="M35.5,55.2L34.3,54c-0.3-0.3-0.6-0.7-0.9-1.1c-0.9-1.1-2.1-2.6-3-3.8c-1.2-1.5-2.4-3.1-3.4-4.7l-2-3.2
		c-6-10.2-7.6-19.7-3.6-22.9c3.8-3.1,11.8,0.4,19.8,7.7l0.6-0.5c-8.5-7.7-17-11.2-21.2-7.9c-4.3,3.4-2.5,13.4,3.4,23.8l1.9,3.2
		c1.3,2,2.7,3.9,4.2,5.8c1.1,1.4,2.1,2.5,2.6,3.2c0.1,0.1,0.3,0.5,0.6,0.9l1,1.4c1.2,1.7,2.8,3.7,4.1,4.3c1.9,0.9,2.4-0.7,1.5-1.6
		C39.1,58.1,37.3,57,35.5,55.2z"/>
</g>
</svg>
